<svg width="26" height="32" viewBox="0 0 26 32" fill="none" xmlns="http://www.w3.org/2000/svg">
<path fill-rule="evenodd" clip-rule="evenodd" d="M9.17605 23.4039C9.12739 23.3714 9.07475 23.3454 9.0194 23.3264C8.28071 23.0731 7.92543 22.8099 7.30053 22.3242C4.19478 19.9105 4.1982 15.2566 4.45799 14.2902C4.71782 13.3239 5.01936 11.5968 4.86058 10.4714C4.7018 9.34598 5.06282 7.87808 5.59995 6.65606C5.69583 6.43789 5.75314 6.01593 5.78275 5.72806C5.80432 5.51499 5.74933 5.30117 5.62764 5.12513C5.38824 4.78051 4.89777 4.23059 4.07711 3.9628C3.72585 3.84818 2.00075 4.21011 1.56534 4.40552C1.35289 4.50084 0.862956 4.46542 0.555507 4.48471C0.362951 4.49681 0.202677 4.55845 0.10978 4.60282C0.0890298 4.61363 0.0643287 4.6136 0.0436494 4.60268C0.0229701 4.59177 0.00894655 4.5714 0.00609914 4.54814C-0.0138327 4.36582 -0.00468564 3.96312 0.349532 3.55154C0.829037 2.99441 1.37047 2.84908 1.76299 2.7527C2.15554 2.65628 3.44246 2.40226 3.81248 1.9488C4.1825 1.49534 4.95665 0.560695 5.89861 0.296509C6.84056 0.0323228 8.16176 -0.211602 9.49784 0.296509C10.834 0.80462 11.2869 2.69124 11.0889 3.85114C10.8909 5.01102 10.1929 7.02416 11.2889 8.50808C12.3849 9.99196 13.0406 10.9696 15.1969 11.6071C17.3531 12.2447 19.7881 16.0357 20.351 16.7855C20.9139 17.5352 22.9196 21.6617 24.4174 22.144C25.9152 22.6263 26.3636 22.872 24.8655 22.9618C24.2092 23.0012 24.3189 23.465 23.6588 23.3536C22.9988 23.2421 22.9394 23.2141 22.9394 23.2141C22.9394 23.2141 22.9843 23.5592 21.9573 23.3536C20.9303 23.1479 21.2441 23.2953 20.1414 22.9618C20.1414 22.9618 19.9409 23.3703 19.0149 23.279C19.0149 23.279 18.3682 24.6852 16.6299 24.1434C16.284 24.0353 15.9205 23.9948 15.5593 24.0242C15.5401 24.0261 15.5205 24.0276 15.5005 24.0291C15.4108 24.036 15.3315 24.0902 15.2924 24.1714C15.0494 24.7185 15.1815 25.5843 15.2745 26.1898C15.3824 26.8918 15.2296 26.8976 15.1516 27.1293C15.0735 27.361 14.9195 29.7896 14.9857 30.6825C15.052 31.5754 15.5853 31.3668 16.1684 31.3827C16.6389 31.3955 16.7532 31.6607 16.7766 31.8393C16.7818 31.8799 16.7693 31.9208 16.7423 31.9516C16.7152 31.9823 16.6763 32 16.6355 32C15.5559 32 8.62155 32 7.65357 32C7.57181 32 7.50326 31.9382 7.49472 31.8567C7.46888 31.5943 7.75277 31.3827 7.8798 31.3827C8.02929 31.3827 8.67978 31.3694 9.30311 31.3827C9.92641 31.396 10.0372 31.4185 10.3708 31.3827C10.7045 31.3468 10.9006 31.2608 10.9862 30.9147C11.0717 30.5685 10.8575 29.3866 10.7119 28.1474C10.5663 26.9081 10.4666 26.9231 10.3708 26.7969C10.2751 26.6707 10.1574 26.5144 10.1518 26.2483C10.1489 26.1081 10.1808 26.0063 10.2116 25.9413C10.2467 25.87 10.263 25.7908 10.2589 25.7114C10.1904 24.3327 9.77212 23.9517 9.61708 23.7509C9.55191 23.6665 9.36956 23.5328 9.17605 23.4039ZM14.2368 24.6062C14.239 24.4584 14.1808 24.3162 14.0758 24.2125C13.9707 24.1088 13.8279 24.0526 13.6806 24.057C13.3551 24.0637 13.0428 24.0645 12.597 24.0323C12.4041 24.0198 12.2105 24.0382 12.0234 24.0869C11.501 24.2177 11.3112 24.3625 11.2889 24.5722C11.2105 25.3097 11.5068 26.2718 11.5528 27.3389C11.5849 28.0842 11.9679 30.7858 12.3647 31.1605C12.5402 31.3262 12.808 31.3873 13.0861 31.3827C13.4257 31.377 13.5998 31.2548 13.6878 31.1605C14.1513 30.6646 14.0852 28.3126 14.1428 27.6993C14.2004 27.086 14.1733 25.3647 14.2256 24.802C14.2321 24.7333 14.2355 24.6679 14.2368 24.6062Z" fill="#0000FF"/>
</svg>
