<svg width="96" height="96" viewBox="0 0 96 96" fill="none" xmlns="http://www.w3.org/2000/svg">
<path d="M48 0C70.6274 0 81.9413 -0.000140377 88.9707 7.0293C96.0001 14.0587 96 25.3726 96 48C96 59.5353 95.9968 68.1298 95.0654 74.7158C93.3257 72.5353 91.5849 70.1718 89.6709 67.6084C81.2566 56.3393 86.6156 41.0528 88.1357 32.2441C89.6557 23.4354 86.1777 9.11446 75.9209 5.25684C65.6639 1.39163 55.5221 3.2445 48.29 5.25684C41.0582 7.26153 35.116 14.3531 32.2676 17.8008C29.4269 21.2407 19.5533 23.1697 16.5361 23.9062C13.519 24.6352 9.36584 25.7367 5.68848 29.9736C2.96313 33.0945 2.89335 36.155 3.04688 37.5371C3.06991 37.7118 3.17764 37.8715 3.33887 37.9551C3.4924 38.0386 3.6845 38.0386 3.8457 37.9551C4.55969 37.6134 5.78789 37.1497 7.26953 37.0586C9.62649 36.9067 13.389 37.1804 15.0166 36.459C18.3645 34.9706 31.6069 32.2216 34.3018 33.0947C40.6048 35.1298 44.3664 39.3067 46.209 41.9189C47.1379 43.2554 47.5606 44.8806 47.3994 46.498C47.1691 48.685 46.7311 51.8895 45.9941 53.5449C41.8715 62.8244 39.1006 73.9718 40.3213 82.5146C40.8709 86.3889 40.6955 91.2002 40.1553 95.9863C22.6558 95.8932 13.1946 95.136 7.0293 88.9707C-0.000140377 81.9413 0 70.6274 0 48C0 25.3726 -0.000140377 14.0587 7.0293 7.0293C14.0587 -0.000140377 25.3726 0 48 0Z" fill="#181818"/>
</svg>
