<svg width="93" height="93" viewBox="0 0 93 93" fill="none" xmlns="http://www.w3.org/2000/svg">
<path d="M45.2897 2.25683C52.5218 0.244507 62.6636 -1.60829 72.9205 2.25683C83.1774 6.1144 86.6554 20.4354 85.1354 29.2441C83.6153 38.0528 78.2571 53.3393 86.6715 64.6084C88.5855 67.1716 90.3254 69.5354 92.0651 71.7158C91.1695 78.0488 89.4162 82.5248 85.9704 85.9707C78.9409 93 67.6269 93 44.9997 93C42.2181 93 39.6076 92.9994 37.1549 92.9863C37.6952 88.2002 37.8706 83.3889 37.3209 79.5146C36.1003 70.9717 38.872 59.8244 42.9948 50.5449C43.7318 48.8895 44.1687 45.685 44.3991 43.498C44.5603 41.8806 44.1385 40.2554 43.2096 38.9189C41.367 36.3067 37.6045 32.1298 31.3014 30.0947C28.6058 29.2218 15.3636 31.9707 12.0163 33.459C10.3886 34.1804 6.62614 33.9067 4.26918 34.0586C2.78765 34.1498 1.55928 34.6134 0.845354 34.9551C0.684171 35.0385 0.492 35.0386 0.338518 34.9551C0.177396 34.8715 0.0705255 34.7117 0.0475022 34.5371C-0.106029 33.155 -0.0372706 30.0946 2.68813 26.9736C6.3654 22.7367 10.5186 21.6352 13.5358 20.9062C16.553 20.1697 26.4266 18.2407 29.2672 14.8008C32.1156 11.3532 38.0579 4.26167 45.2897 2.25683Z" fill="#181818"/>
</svg>
