<?xml version="1.0" encoding="UTF-8" standalone="no"?>
<!DOCTYPE svg PUBLIC "-//W3C//DTD SVG 1.1//EN" "http://www.w3.org/Graphics/SVG/1.1/DTD/svg11.dtd">
<svg width="100%" height="100%" viewBox="0 0 26 32" version="1.1" xmlns="http://www.w3.org/2000/svg" xmlns:xlink="http://www.w3.org/1999/xlink" xml:space="preserve" xmlns:serif="http://www.serif.com/" style="fill-rule:evenodd;clip-rule:evenodd;stroke-linejoin:round;stroke-miterlimit:2;">
    <path d="M9.176,23.404C9.127,23.371 9.075,23.345 9.019,23.326C8.281,23.073 7.925,22.81 7.301,22.324C4.195,19.911 4.198,15.257 4.458,14.29C4.718,13.324 5.019,11.597 4.861,10.471C4.702,9.346 5.063,7.878 5.6,6.656C5.696,6.438 5.753,6.016 5.783,5.728C5.804,5.515 5.749,5.301 5.628,5.125C5.388,4.781 4.898,4.231 4.077,3.963C3.726,3.848 2.001,4.21 1.565,4.406C1.353,4.501 0.863,4.465 0.556,4.485C0.363,4.497 0.203,4.558 0.11,4.603C0.089,4.614 0.064,4.614 0.044,4.603C0.023,4.592 0.009,4.571 0.006,4.548C-0.014,4.366 -0.005,3.963 0.35,3.552C0.829,2.994 1.37,2.849 1.763,2.753C2.156,2.656 3.442,2.402 3.812,1.949C4.183,1.495 4.957,0.561 5.899,0.297C6.841,0.032 8.162,-0.212 9.498,0.297C10.834,0.805 11.287,2.691 11.089,3.851C10.891,5.011 10.193,7.024 11.289,8.508C12.385,9.992 13.041,10.97 15.197,11.607C17.353,12.245 19.788,16.036 20.351,16.786C20.914,17.535 22.92,21.662 24.417,22.144C25.915,22.626 26.364,22.872 24.866,22.962C24.209,23.001 24.319,23.465 23.659,23.354C22.999,23.242 22.939,23.214 22.939,23.214C22.939,23.214 22.984,23.559 21.957,23.354C20.93,23.148 21.244,23.295 20.141,22.962C20.141,22.962 19.941,23.37 19.015,23.279C19.015,23.279 18.368,24.685 16.63,24.143C16.284,24.035 15.921,23.995 15.559,24.024C15.54,24.026 15.521,24.028 15.501,24.029C15.411,24.036 15.332,24.09 15.292,24.171C15.049,24.719 15.182,25.584 15.275,26.19C15.382,26.892 15.23,26.898 15.152,27.129C15.073,27.361 14.919,29.79 14.986,30.683C15.052,31.575 15.585,31.367 16.168,31.383C16.639,31.395 16.753,31.661 16.777,31.839C16.782,31.88 16.769,31.921 16.742,31.952C16.715,31.982 16.676,32 16.636,32L7.654,32C7.572,32 7.503,31.938 7.495,31.857C7.469,31.594 7.753,31.383 7.88,31.383C8.029,31.383 8.68,31.369 9.303,31.383C9.926,31.396 10.037,31.419 10.371,31.383C10.705,31.347 10.901,31.261 10.986,30.915C11.072,30.569 10.858,29.387 10.712,28.147C10.566,26.908 10.467,26.923 10.371,26.797C10.275,26.671 10.157,26.514 10.152,26.248C10.149,26.108 10.181,26.006 10.212,25.941C10.247,25.87 10.263,25.791 10.259,25.711C10.19,24.333 9.772,23.952 9.617,23.751C9.552,23.667 9.37,23.533 9.176,23.404ZM14.237,24.606C14.239,24.458 14.181,24.316 14.076,24.212C13.971,24.109 13.828,24.053 13.681,24.057C13.355,24.064 13.043,24.065 12.597,24.032C12.404,24.02 12.211,24.038 12.023,24.087C11.501,24.218 11.311,24.363 11.289,24.572C11.211,25.31 11.507,26.272 11.553,27.339C11.585,28.084 11.968,30.786 12.365,31.161C12.54,31.326 12.808,31.387 13.086,31.383C13.426,31.377 13.6,31.255 13.688,31.161C14.151,30.665 14.085,28.313 14.143,27.699C14.2,27.086 14.173,25.365 14.226,24.802C14.232,24.733 14.236,24.668 14.237,24.606Z" style="fill:rgb(0,89,255);"/>
</svg>
