<?xml version="1.0" encoding="UTF-8" standalone="no"?>
<!DOCTYPE svg PUBLIC "-//W3C//DTD SVG 1.1//EN" "http://www.w3.org/Graphics/SVG/1.1/DTD/svg11.dtd">
<svg width="100%" height="100%" viewBox="0 0 80 80" version="1.1" xmlns="http://www.w3.org/2000/svg" xmlns:xlink="http://www.w3.org/1999/xlink" xml:space="preserve" xmlns:serif="http://www.serif.com/" style="fill-rule:evenodd;clip-rule:evenodd;stroke-linejoin:round;stroke-miterlimit:2;">
    <path d="M19.055,23.722L19.062,20.942L19.7,18.155L20.827,15.682C21.612,14.321 22.65,13.03 23.933,11.849C26.696,9.306 30.827,7.205 35.479,5.928C39.856,4.727 41.988,5.101 45.711,4.498C55.278,2.95 70.477,10.625 62.032,40.812C62.849,42.521 65.755,48.522 68.105,52.4C71.849,58.576 75.461,64.505 76.265,66.987L76.79,69.896L76.536,72.253L75.248,75.062L73.503,76.867L70.968,78.275L67.445,79C65.027,79.116 61.659,78.373 57.972,76.726C52.314,74.198 42.903,68.437 40.377,66.872C35.954,67.071 31.386,65.714 27.315,63.536C21.283,60.309 16.48,55.45 15.461,54.23C8.642,46.065 8.286,42.283 9.06,34.764L9.773,31.684L11.243,28.91L13.61,26.419L17.262,24.312C17.777,24.102 18.392,23.905 19.055,23.722ZM24.944,38.84C25.144,40.423 25.905,41.774 27.742,43.974C28.348,44.7 31.273,47.507 34.864,49.429C36.468,50.287 38.206,51.173 39.92,50.862L42.575,50.785L45.691,51.629C46.888,52.119 48.625,53.083 50.661,54.277C50.058,53.166 49.504,52.113 49.026,51.16C47.419,47.951 46.371,45.06 46.023,42.951L45.857,40.13L46.273,37.715C48.384,30.632 49.004,25.515 48.369,21.949C48.272,21.405 48.024,20.75 47.86,20.355C44.998,20.759 43.202,20.401 39.713,21.358C38.382,21.723 36.678,22.602 35.621,23.189L37.07,25.807L37.56,29.46L36.568,32.954L34.618,35.459L32.386,36.966L28.881,38.101C27.979,38.282 26.249,38.601 24.944,38.84Z"/>
</svg>
